<?xml version="1.0" encoding="UTF-8" standalone="no"?>
<!-- Created with Inkscape (http://www.inkscape.org/) -->

<svg
   width="214.757"
   height="48"
   viewBox="0 0 56.821123 12.700001"
   version="1.1"
   id="svg1665"
   inkscape:version="1.3 (0e150ed6c4, 2023-07-21)"
   sodipodi:docname="header.svg"
   xmlns:inkscape="http://www.inkscape.org/namespaces/inkscape"
   xmlns:sodipodi="http://sodipodi.sourceforge.net/DTD/sodipodi-0.dtd"
   xmlns="http://www.w3.org/2000/svg"
   xmlns:svg="http://www.w3.org/2000/svg">
  <sodipodi:namedview
     id="namedview1667"
     pagecolor="#ffffff"
     bordercolor="#000000"
     borderopacity="0.25"
     inkscape:showpageshadow="2"
     inkscape:pageopacity="0.0"
     inkscape:pagecheckerboard="0"
     inkscape:deskcolor="#d1d1d1"
     inkscape:document-units="px"
     showgrid="false"
     inkscape:zoom="2.587745"
     inkscape:cx="34.006442"
     inkscape:cy="60.090929"
     inkscape:window-width="2560"
     inkscape:window-height="1334"
     inkscape:window-x="-11"
     inkscape:window-y="-11"
     inkscape:window-maximized="1"
     inkscape:current-layer="layer1" />
  <defs
     id="defs1662" />
  <g
     inkscape:label="Layer 1"
     inkscape:groupmode="layer"
     id="layer1">
    <g
       aria-label="nikGroup"
       id="text236"
       style="font-style:italic;font-weight:bold;font-size:12.7px;font-family:'Times New Roman';-inkscape-font-specification:'Times New Roman,  Bold Italic';fill:#2060c0;stroke-width:8.46667;stroke-linecap:square;paint-order:markers stroke fill"
       transform="scale(0.96421832)">
      <path
         d="M 6.1329586,9.487793 H 4.1795895 V 5.9593262 q 0,-1.4758789 -1.0541992,-1.4758789 -0.5084961,0 -0.8371582,0.3906739 Q 1.95957,5.264795 1.95957,5.8663086 V 9.487793 H -3.2573007e-7 V 3.1377931 H 1.95957 v 1.0045898 h 0.024805 q 0.7007325,-1.1596191 2.0401856,-1.1596191 2.1083984,0 2.1083984,2.6168945 z"
         style="-inkscape-font-specification:'Segoe UI Bold'"
         id="path1846" />
      <path
         d="m 8.675439,2.1332032 q -0.4960937,0 -0.8123535,-0.291455 -0.3162597,-0.2976563 -0.3162597,-0.7255371 0,-0.44028323 0.3162597,-0.71933596 0.3162598,-0.27905273 0.8123535,-0.27905273 0.5022949,0 0.8123535,0.27905273 0.3162598,0.27905273 0.3162598,0.71933596 0,0.4464843 -0.3162598,0.7317382 Q 9.1777339,2.1332032 8.675439,2.1332032 Z M 9.6428218,9.487793 H 7.6832515 V 3.1377931 h 1.9595703 z"
         style="-inkscape-font-specification:'Segoe UI Bold'"
         id="path1848" />
      <path
         d="M 17.654736,9.487793 H 15.304491 L 13.276708,6.3375977 h -0.0248 V 9.487793 H 11.292333 V 0.08681655 h 1.959571 V 6.0709473 h 0.0248 l 1.891358,-2.9331542 h 2.325439 l -2.27583,2.9827636 z"
         style="-inkscape-font-specification:'Segoe UI Bold'"
         id="path1850" />
      <path
         d="m 26.41079,1.4249235e-7 q 0.235645,0 0.452686,0.0868164075077 0.223242,0.0868164 0.396875,0.2418457 0.173633,0.15502929 0.272851,0.35966796 0.10542,0.1984375 0.10542,0.43408199 0,0.3410645 -0.204638,0.539502 -0.204639,0.1922363 -0.595313,0.1922363 -0.16123,0 -0.291455,-0.068213 -0.130225,-0.068213 -0.241846,-0.1426269 -0.10542,-0.080615 -0.204638,-0.1488282 -0.09302,-0.068213 -0.198438,-0.068213 -0.334863,0 -0.781348,0.093017 -0.440283,0.093018 -1.010791,0.3348633 -0.539501,0.2294434 -1.035595,0.5519043 -0.496094,0.3162598 -0.967383,0.7069336 -0.458887,0.3782715 -0.886768,0.8557617 -0.421679,0.4774902 -0.74414,0.9549804 -0.124024,0.1860352 -0.235645,0.4278809 -0.10542,0.2418457 -0.186035,0.5208984 -0.08062,0.2728516 -0.130224,0.5705078 -0.04341,0.2914551 -0.04341,0.5829102 0,0.2852539 0.161231,0.471289 0.167431,0.179834 0.403076,0.2852539 0.235644,0.1054199 0.496094,0.1488282 0.260449,0.037207 0.452685,0.037207 0.359668,0 0.762744,-0.086816 0.403077,-0.086816 0.806153,-0.2356446 0.409277,-0.1550292 0.79375,-0.3596679 Q 24.14116,7.0817379 24.45742,6.8522946 24.53804,6.7902826 24.686863,6.6538571 24.835693,6.5112305 24.97832,6.35 q 0.142626,-0.1674316 0.248046,-0.3224609 0.111621,-0.1612305 0.111621,-0.2604492 0,-0.055811 -0.0186,-0.1302246 -0.0124,-0.074414 -0.03101,-0.1488281 -0.0124,-0.074414 -0.03101,-0.142627 -0.0124,-0.074414 -0.0124,-0.1178222 0,-0.4030762 0.775146,-0.4030762 0.198438,0 0.384473,0.093018 0.192236,0.093017 0.341064,0.2232421 0.148829,0.1302247 0.241846,0.2728516 0.09922,0.1364258 0.10542,0.2294434 0,0.018604 -0.05581,0.1426269 -0.04961,0.1178223 -0.136426,0.2914551 -0.08062,0.1736328 -0.179834,0.3782715 -0.09922,0.1984375 -0.186035,0.3720703 -0.08682,0.1736328 -0.15503,0.3038574 -0.06201,0.1240234 -0.07441,0.1550293 -0.09302,0.2232422 -0.198437,0.5395019 -0.10542,0.3162598 -0.198438,0.6387207 -0.08682,0.3162598 -0.142627,0.6015137 -0.05581,0.2790527 -0.05581,0.4278808 0,0.055811 0.0248,0.099219 0.03101,0.049609 0.06201,0.086816 0.03101,0.043408 0.05581,0.080615 0.03101,0.037207 0.03101,0.074414 0,0.1798345 -0.06821,0.3348635 -0.06821,0.155029 -0.192237,0.272851 -0.117822,0.117823 -0.285254,0.179834 -0.16123,0.06821 -0.353466,0.06821 -0.223243,0 -0.372071,-0.06821 -0.142627,-0.06821 -0.235644,-0.192236 -0.08682,-0.124023 -0.124024,-0.303857 -0.03101,-0.1736332 -0.03101,-0.3906743 0,-0.1240234 0.06821,-0.3472656 0.06821,-0.2232422 0.161231,-0.471289 0.09302,-0.2542481 0.192236,-0.4960938 0.09922,-0.2480468 0.161231,-0.4092773 -0.415479,0.2790527 -0.799951,0.5208984 -0.384473,0.2418457 -0.806153,0.4216797 -0.415478,0.179834 -0.905371,0.2852539 -0.483691,0.099219 -1.103808,0.099219 -0.620118,0 -1.172022,-0.1674316 -0.545703,-0.1674316 -0.95498,-0.4588867 -0.409278,-0.2976562 -0.651123,-0.6945312 -0.235645,-0.396875 -0.235645,-0.8495606 0,-0.8929687 0.409277,-1.8479492 0.409278,-0.9549804 1.240235,-1.9223632 0.347265,-0.4030762 0.713135,-0.7627442 0.365869,-0.3658691 0.700732,-0.651123 0.235644,-0.1984375 0.5271,-0.396875 0.291455,-0.2046387 0.613916,-0.3906738 0.32246,-0.1860352 0.663525,-0.34726562 Q 23.384618,0.68833021 23.725683,0.5581056 24.091552,0.42167982 24.420214,0.3162599 24.748876,0.21083998 25.065136,0.14262709 25.387597,0.0744142 25.716259,0.03720717 26.044921,1.4249235e-7 26.41079,1.4249235e-7 Z"
         style="-inkscape-font-specification:'Segoe Script Bold'"
         id="path1852" />
      <path
         d="m 34.887792,4.5330567 q 0,0.055811 -0.02481,0.1488281 -0.0248,0.093018 -0.07441,0.1860352 -0.04961,0.093018 -0.130224,0.1612305 -0.07441,0.068213 -0.186035,0.074414 -0.02481,0 -0.10542,0 -0.08062,-0.0062 -0.173633,-0.012402 -0.09302,-0.0062 -0.173633,-0.0062 -0.08061,-0.0062 -0.117822,-0.0062 -1.035596,0.055811 -1.792139,0.7441406 -0.173633,0.1550293 -0.359668,0.3658692 -0.179834,0.2108398 -0.359668,0.4650879 -0.173633,0.2480468 -0.334863,0.5333007 -0.16123,0.2852539 -0.291455,0.5953125 -0.10542,0.2542481 -0.204639,0.5270996 -0.09922,0.2666504 -0.173633,0.5643067 -0.04341,0.1612304 -0.06821,0.2852539 -0.0186,0.1178222 -0.06821,0.2790527 -0.03101,0.099219 -0.10542,0.1674316 -0.07441,0.074414 -0.173633,0.1178223 -0.09922,0.049609 -0.21084,0.074414 -0.10542,0.024805 -0.21084,0.031006 -0.396875,0 -0.545703,-0.3596679 -0.148828,-0.359668 -0.148828,-1.0728028 0,-0.1612304 0,-0.3038574 0.0062,-0.1426269 0.0124,-0.2852539 0.0124,-0.1488281 0.02481,-0.3038574 0.0124,-0.1612305 0.03101,-0.359668 0.02481,-0.291455 0.06821,-0.68833 0.04341,-0.4030762 0.09302,-0.8123535 0.04961,-0.4154785 0.10542,-0.7999512 0.06201,-0.3844726 0.124024,-0.651123 0.07441,-0.3286621 0.248047,-0.5146973 0.179834,-0.1860351 0.520898,-0.1860351 0.09922,0 0.198438,0.05581 0.105419,0.049609 0.186035,0.1240234 0.08062,0.074414 0.136425,0.1612305 0.05581,0.086816 0.06201,0.1550293 l 0.0062,0.1116211 q 0,0.1736328 -0.03101,0.4092773 -0.03101,0.2356446 -0.08682,0.5022949 Q 30.503563,5.2709985 30.441552,5.54385 30.385742,5.8105004 30.32373,6.0585473 30.26792,6.300393 30.21831,6.5112328 30.1749,6.7158715 30.1501,6.8522973 30.367141,6.3934105 30.615188,5.9717309 30.863235,5.54385 31.148489,5.1841821 31.433742,4.8183129 31.762405,4.533059 q 0.328662,-0.2852539 0.706933,-0.4588867 0.297656,-0.1364258 0.545703,-0.2046387 0.248047,-0.074414 0.446485,-0.074414 0.235644,0 0.483691,0.049609 0.254248,0.049609 0.458887,0.1488282 0.21084,0.093018 0.347265,0.2294433 0.136426,0.1364258 0.136426,0.3100586 z"
         style="-inkscape-font-specification:'Segoe Script Bold'"
         id="path1854" />
      <path
         d="m 43.854686,4.0803712 q 0,0.1178222 -0.08062,0.254248 -0.07441,0.1302246 -0.198437,0.2666504 -0.117822,0.1302246 -0.272852,0.2604492 -0.155029,0.1302246 -0.310058,0.2418457 -0.15503,0.1054199 -0.297657,0.1860352 -0.136425,0.080615 -0.229443,0.1240234 -0.167432,0.068213 -0.434082,0.1302246 -0.260449,0.055811 -0.551904,0.099219 -0.285254,0.037207 -0.558106,0.062012 -0.26665,0.024805 -0.452685,0.024805 -0.04341,0 -0.124024,-0.0062 -0.07441,-0.012402 -0.167431,-0.031006 -0.08682,-0.018604 -0.179834,-0.043408 -0.08682,-0.031006 -0.148828,-0.074414 0.06821,0.1426269 0.07441,0.3162597 0.0124,0.1674317 0.0124,0.3348633 0,0.1178223 -0.02481,0.2790527 -0.0248,0.1612305 -0.06821,0.3286621 -0.03721,0.1674317 -0.09302,0.322461 -0.05581,0.1550293 -0.117822,0.2604492 -0.15503,0.2666504 -0.334864,0.4898926 -0.173633,0.2232421 -0.390674,0.4154785 -0.217041,0.1922363 -0.489892,0.3596679 -0.272852,0.1674317 -0.63252,0.3286621 -0.384472,0.1674317 -0.768945,0.2356446 -0.384473,0.062012 -0.79375,0.062012 -0.303857,0 -0.539502,-0.1550293 -0.235644,-0.1612305 -0.396875,-0.4278809 -0.16123,-0.2666503 -0.248047,-0.613916 -0.08062,-0.3472656 -0.08062,-0.7255371 0,-0.093017 0.0124,-0.2294433 0.0186,-0.142627 0.04341,-0.2852539 0.03101,-0.142627 0.06201,-0.2790528 0.03721,-0.1364257 0.06821,-0.2294433 0.08682,-0.2604492 0.248047,-0.5953125 0.167432,-0.3348633 0.390674,-0.6821289 0.223242,-0.3534668 0.496094,-0.6883301 0.272851,-0.3410644 0.576709,-0.6015136 0.310058,-0.2666504 0.63872,-0.4278809 0.334864,-0.1612304 0.669727,-0.1612304 0.142627,0 0.229443,0.031006 0.08682,0.024805 0.142627,0.074414 0.05581,0.043408 0.09922,0.1054199 0.04961,0.055811 0.10542,0.1116211 0.04341,-0.012402 0.08682,-0.018604 0.04961,-0.0062 0.09922,-0.0062 0.192236,0 0.378271,0.1488281 0.186036,0.1488281 0.378272,0.3286621 0.08682,0.080615 0.173633,0.1674317 0.09302,0.080615 0.167431,0.1488281 0.07441,0.062012 0.130225,0.1054199 0.06201,0.037207 0.08682,0.037207 0.161231,0 0.347266,0 0.192236,-0.0062 0.384473,-0.012402 0.198437,-0.012402 0.378271,-0.031006 0.186035,-0.018604 0.334863,-0.043408 0.0186,-0.0062 0.161231,-0.037207 0.142627,-0.037207 0.341064,-0.086816 0.204639,-0.055811 0.440284,-0.1178223 0.235644,-0.062012 0.434082,-0.1116211 0.204638,-0.05581 0.347265,-0.086816 0.148828,-0.037207 0.173633,-0.037207 0.124023,0 0.198437,0.031006 0.07442,0.031006 0.07442,0.1736328 z m -7.156153,4.1361816 q 0.502295,0 0.886768,-0.2666504 0.390674,-0.2666504 0.657324,-0.7069336 0.26665,-0.4464844 0.409277,-1.010791 Q 38.800731,5.66167 38.806932,5.0601563 38.763522,4.9671383 38.676707,4.86792 38.596087,4.768701 38.490672,4.6942872 38.385252,4.6136722 38.273631,4.5640626 38.16201,4.5144536 38.068992,4.5144536 q -0.148828,0 -0.322461,0.1178223 Q 37.572899,4.7500981 37.42407,4.8741216 37.275242,4.998145 37.126414,5.2027837 36.983787,5.4012212 36.859764,5.649268 36.73574,5.8973149 36.63032,6.1763676 36.5249,6.4492192 36.450486,6.7220708 q -0.07441,0.2666503 -0.117822,0.5208984 -0.03721,0.254248 -0.03721,0.4526855 0,0.099219 0.03101,0.1922363 0.03101,0.093018 0.08062,0.1674317 0.05581,0.074414 0.130225,0.1178223 0.07441,0.043408 0.16123,0.043408 z"
         style="-inkscape-font-specification:'Segoe Script Bold'"
         id="path1856" />
      <path
         d="m 53.683544,3.9873536 q 0,0.049609 -0.0124,0.099219 -0.0124,0.049609 -0.04341,0.1116211 -0.223242,0.4464844 -0.5271,0.9239746 -0.303857,0.4774903 -0.663525,0.936377 -0.353467,0.4526855 -0.744141,0.8619629 -0.390674,0.4092773 -0.787549,0.7193359 -0.390673,0.3038574 -0.775146,0.4836914 -0.384473,0.179834 -0.731738,0.179834 -0.353467,0 -0.651123,-0.10542 Q 48.455957,8.0863281 48.238916,7.8444824 48.021875,7.6026367 47.897851,7.2243653 47.780029,6.8460938 47.780029,6.3065918 47.68081,6.4678223 47.538183,6.672461 47.401757,6.8708985 47.240527,7.0755371 47.085498,7.2801758 46.911865,7.4724121 46.744433,7.6646485 46.577002,7.8072754 46.428173,7.9375 46.204931,8.1235352 45.98789,8.3033692 45.702636,8.477002 q -0.279052,0.1674316 -0.620117,0.2976562 -0.341064,0.1240234 -0.731738,0.142627 -0.508496,0 -0.806152,-0.1736328 -0.291456,-0.179834 -0.440284,-0.4526856 -0.148828,-0.2790527 -0.192236,-0.613916 -0.03721,-0.3348633 -0.03721,-0.651123 0,-0.031006 0.0062,-0.1736328 0.0124,-0.142627 0.03101,-0.3534668 0.02481,-0.2108399 0.06201,-0.4712891 0.04341,-0.2666504 0.09922,-0.5519043 0.06201,-0.2852539 0.142626,-0.5705078 0.08062,-0.2852539 0.186036,-0.5395019 0.05581,-0.1302246 0.10542,-0.2356446 0.05581,-0.111621 0.124023,-0.1860351 0.06821,-0.080615 0.167432,-0.1302246 0.09922,-0.049609 0.248046,-0.055811 0.192237,0 0.31626,0.068213 0.130225,0.062012 0.204639,0.1612305 0.08062,0.099219 0.111621,0.2232422 0.03101,0.1240234 0.03101,0.2418457 0,0.093018 -0.08682,0.3286621 -0.08062,0.2356445 -0.179834,0.5829101 -0.09922,0.3472657 -0.186035,0.79375 -0.08061,0.4464844 -0.08061,0.9611816 0,0.2604493 0.08682,0.4154786 0.08682,0.1488281 0.229444,0.1488281 0.198437,0 0.384472,-0.062012 0.192237,-0.062012 0.372071,-0.1612305 0.179834,-0.099219 0.347265,-0.2232422 0.173633,-0.1302246 0.328663,-0.2604492 0.186035,-0.1550293 0.403076,-0.396875 0.223242,-0.2418457 0.434082,-0.5084961 0.21084,-0.2728515 0.390674,-0.5333008 0.179834,-0.2604492 0.285253,-0.4526855 0.05581,-0.099219 0.130225,-0.2604492 0.07441,-0.1674316 0.142627,-0.3472656 0.06821,-0.179834 0.124023,-0.3410645 0.05581,-0.1674316 0.08062,-0.2666504 0.0186,-0.086816 0.03101,-0.1488281 0.0186,-0.068213 0.03101,-0.1364258 0.0186,-0.068213 0.04341,-0.1426269 0.0248,-0.074414 0.06201,-0.1674317 0.02481,-0.062012 0.09302,-0.1302246 0.06821,-0.074414 0.155029,-0.1302246 0.09302,-0.062012 0.192237,-0.099219 0.105419,-0.043408 0.198437,-0.043408 0.279053,0 0.427881,0.1612304 0.148828,0.1550293 0.16123,0.3844727 -0.0248,0.1240234 -0.08682,0.4154785 -0.05581,0.2852539 -0.117822,0.6449219 -0.06201,0.3534668 -0.10542,0.7379394 -0.04341,0.3782715 -0.04341,0.6945313 0,0.5457031 0.148828,0.8619628 0.155029,0.3100586 0.434082,0.3100586 0.21084,0 0.440283,-0.1116211 0.235644,-0.1178222 0.483691,-0.3100586 0.248047,-0.1922363 0.496094,-0.4402832 0.254248,-0.254248 0.496094,-0.5333007 0.248047,-0.2790528 0.471289,-0.5643067 0.229443,-0.2852539 0.427881,-0.5395019 0.285254,-0.3720703 0.520898,-0.613916 0.235645,-0.2480469 0.458887,-0.2480469 0.03721,0 0.09302,0.012402 0.06201,0.012402 0.117823,0.043408 0.05581,0.031006 0.09302,0.080615 0.04341,0.049609 0.04341,0.1302246 z"
         style="-inkscape-font-specification:'Segoe Script Bold'"
         id="path1858" />
      <path
         d="m 58.929735,4.3594239 q 0,0.6635254 -0.155029,1.2340332 -0.148828,0.5705078 -0.446485,1.0790039 -0.291455,0.5084961 -0.713134,0.9735839 -0.42168,0.4588868 -0.961182,0.9053711 -0.204639,0.1674317 -0.471289,0.3348633 -0.260449,0.1612305 -0.551904,0.2852539 -0.285254,0.1240234 -0.58291,0.2046387 -0.291455,0.074414 -0.558106,0.074414 -0.279053,0 -0.496094,-0.1240234 -0.217041,-0.1240234 -0.291455,-0.3410644 -0.05581,0.2976562 -0.09922,0.5457031 -0.03721,0.2480468 -0.06821,0.4712888 -0.03101,0.223242 -0.05581,0.440283 -0.02481,0.217041 -0.05581,0.458887 -0.0062,0.04341 -0.03101,0.235645 -0.02481,0.192236 -0.05581,0.421679 -0.03101,0.229444 -0.06201,0.440284 -0.0248,0.210839 -0.03721,0.285253 -0.0186,0.117823 -0.09922,0.272852 -0.07441,0.155029 -0.186035,0.291455 -0.111622,0.136426 -0.241846,0.229443 -0.124024,0.09302 -0.235645,0.09302 -0.111621,0 -0.260449,-0.07441 -0.142627,-0.06821 -0.272851,-0.173633 -0.130225,-0.09922 -0.223243,-0.204639 -0.08682,-0.105419 -0.08682,-0.179834 0,-0.04961 0.02481,-0.210839 0.03101,-0.15503 0.07441,-0.390674 0.04341,-0.229444 0.09922,-0.514697 0.05581,-0.285254 0.111622,-0.582911 0.06201,-0.291455 0.111621,-0.58291 0.05581,-0.2852536 0.09922,-0.5208982 0.09302,-0.5457031 0.217041,-1.1534179 0.124024,-0.6077148 0.229444,-1.2402344 0.111621,-0.6387207 0.186035,-1.2898437 0.07441,-0.651123 0.07441,-1.2836426 0,-0.012402 0,-0.086816 0,-0.074414 -0.0062,-0.1736328 0,-0.1054199 0,-0.2108398 0,-0.1116211 0,-0.1860352 0,-0.2294433 0.06201,-0.4526855 0.06201,-0.2294434 0.173632,-0.4030762 0.117823,-0.179834 0.279053,-0.2852539 0.167432,-0.1116211 0.37207,-0.1116211 0.10542,0 0.21084,0.080615 0.111621,0.080615 0.198438,0.2232422 0.08682,0.1426269 0.142627,0.3348632 0.05581,0.1922364 0.05581,0.4154785 0,0.179834 -0.03721,0.4340821 -0.03721,0.254248 -0.08682,0.5333007 -0.04961,0.2790528 -0.09922,0.5581055 -0.04961,0.2728516 -0.08062,0.4960937 0.341064,-0.6263183 0.806152,-1.1658203 0.471289,-0.5395019 0.948779,-0.9363769 0.483692,-0.4030762 0.911573,-0.6325195 0.42788,-0.2294434 0.694531,-0.2294434 0.322461,0 0.601514,0.1240235 0.279052,0.1178222 0.483691,0.3162597 0.204639,0.1922363 0.322461,0.4402832 0.117822,0.2480469 0.117822,0.5084961 z M 57.57788,4.8245118 q 0,-0.2108399 -0.03721,-0.3410645 -0.03101,-0.1302246 -0.08062,-0.2046386 -0.04341,-0.074414 -0.09302,-0.099219 -0.04961,-0.024805 -0.08062,-0.024805 -0.21084,0 -0.508496,0.2108399 -0.291456,0.2108398 -0.620118,0.5519043 -0.328662,0.3348632 -0.669726,0.7689453 -0.341065,0.4278808 -0.638721,0.8743652 -0.07441,0.1116211 -0.192236,0.2976562 -0.111621,0.1860352 -0.223242,0.3844727 -0.111621,0.1922363 -0.192237,0.3720703 -0.08062,0.1736328 -0.08062,0.2666504 0,0.037207 0.03101,0.099219 0.03101,0.055811 0.09302,0.1178223 0.06821,0.05581 0.167432,0.099219 0.09922,0.037207 0.229443,0.037207 0.241846,0 0.551905,-0.142627 0.310058,-0.1488281 0.626318,-0.4030761 0.322461,-0.2542481 0.63252,-0.5891114 0.310058,-0.3348632 0.545703,-0.7131347 0.241845,-0.3844727 0.390674,-0.7813477 0.148828,-0.4030761 0.148828,-0.7813476 z"
         style="-inkscape-font-specification:'Segoe Script Bold'"
         id="path1860" />
    </g>
  </g>
</svg>
