<?xml version="1.0" encoding="UTF-8" standalone="no"?>
<!-- Created with Inkscape (http://www.inkscape.org/) -->

<svg
   width="72"
   height="24"
   viewBox="0 0 19.049997 6.349999"
   version="1.1"
   id="svg1"
   inkscape:version="1.3 (0e150ed6c4, 2023-07-21)"
   sodipodi:docname="header.svg"
   inkscape:export-filename="ratnik-logo-1024.png"
   inkscape:export-xdpi="384"
   inkscape:export-ydpi="384"
   xmlns:inkscape="http://www.inkscape.org/namespaces/inkscape"
   xmlns:sodipodi="http://sodipodi.sourceforge.net/DTD/sodipodi-0.dtd"
   xmlns="http://www.w3.org/2000/svg"
   xmlns:svg="http://www.w3.org/2000/svg">
  <sodipodi:namedview
     id="namedview1"
     pagecolor="#ffffff"
     bordercolor="#000000"
     borderopacity="0.25"
     inkscape:showpageshadow="2"
     inkscape:pageopacity="0.0"
     inkscape:pagecheckerboard="0"
     inkscape:deskcolor="#d1d1d1"
     inkscape:document-units="px"
     showguides="true"
     showgrid="false"
     inkscape:zoom="11.313709"
     inkscape:cx="43.796424"
     inkscape:cy="12.418562"
     inkscape:window-width="2560"
     inkscape:window-height="1334"
     inkscape:window-x="-11"
     inkscape:window-y="-11"
     inkscape:window-maximized="1"
     inkscape:current-layer="layer1">
    <inkscape:grid
       id="grid3"
       units="px"
       originx="0"
       originy="0"
       spacingx="0.26458333"
       spacingy="0.26458333"
       empcolor="#0099e5"
       empopacity="0.30196078"
       color="#0099e5"
       opacity="0.14901961"
       empspacing="5"
       dotted="false"
       gridanglex="30"
       gridanglez="30"
       visible="false"
       snapvisiblegridlinesonly="true" />
  </sodipodi:namedview>
  <defs
     id="defs1" />
  <g
     inkscape:label="Layer 1"
     inkscape:groupmode="layer"
     id="layer1">
    <g
       id="g12"
       transform="scale(0.18749999)">
      <path
         id="text1"
         style="-inkscape-font-specification:'Segoe UI';fill:#ff6040;stroke-width:12.0919;stroke-linecap:round;stroke-linejoin:round;paint-order:markers stroke fill"
         d="M 7.9369823,20.901047 0,6.3499993 V 33.866663 H 7.628474 V 20.901047 Z" />
      <path
         id="path12"
         style="-inkscape-font-specification:'Segoe UI';fill:#00f0ff;stroke-width:12.0919;stroke-linecap:round;stroke-linejoin:round;paint-order:markers stroke fill"
         d="m 21.305157,22.822377 -5.634798,4.460192 3.979085,6.584094 h 8.761738 L 22.011057,23.853322 c -0.216274,-0.33986 -0.455943,-0.684349 -0.7059,-1.030945 z" />
      <path
         id="path11"
         style="-inkscape-font-specification:'Segoe UI';fill:#60ff00;stroke-width:12.0919;stroke-linecap:round;stroke-linejoin:round;paint-order:markers stroke fill"
         d="m 22.520587,14.948957 -6.654374,-2.54093 c -0.244492,0.476115 -0.570184,0.915826 -0.987536,1.313614 -0.99191,0.944677 -2.306507,1.416968 -3.943945,1.416968 H 7.628474 V 9.2624826 L 0,6.3499993 7.9369823,20.901047 h 1.7461465 c 0.4723382,0 0.9050132,0.102279 1.2986282,0.306958 0.40936,0.188935 0.795427,0.472207 1.157552,0.850078 0.377871,0.362125 0.747884,0.803344 1.11001,1.322916 0.362126,0.519572 0.739649,1.109679 1.133264,1.770951 l 1.287776,2.130619 5.634798,-4.460192 c -0.132173,-0.183275 -0.262518,-0.366229 -0.40411,-0.551388 -0.393615,-0.551061 -0.810754,-1.062969 -1.251603,-1.535306 -0.440849,-0.472338 -0.897604,-0.881967 -1.369942,-1.228349 -0.472338,-0.362125 -0.960683,-0.621835 -1.46451,-0.77928 v -0.09405 c 1.149356,-0.330637 2.188708,-0.787392 3.117639,-1.369943 0.944677,-0.582549 1.747882,-1.275451 2.409155,-2.078425 0.06314,-0.07667 0.118392,-0.158291 0.178801,-0.236678 z" />
      <path
         id="path10"
         style="-inkscape-font-specification:'Segoe UI';fill:#ffe060;stroke-width:12.0919;stroke-linecap:round;stroke-linejoin:round;paint-order:markers stroke fill"
         d="M 0,0 V 6.3499993 L 7.628474,9.2624826 V 5.7154127 h 3.447851 c 3.542535,0 5.313887,1.4800535 5.313887,4.4400383 0,0.830112 -0.178189,1.579159 -0.523999,2.252576 l 6.654374,2.54093 c 0.572302,-0.742627 1.028438,-1.558458 1.355989,-2.455664 0.362126,-1.007655 0.543119,-2.101643 0.543119,-3.2824868 C 24.419695,3.0704128 20.310446,0 12.091767,0 Z" />
    </g>
    <text
       xml:space="preserve"
       style="font-size:6.34999px;line-height:1;font-family:'Segoe UI';-inkscape-font-specification:'Segoe UI';text-anchor:middle;fill:#505050;stroke-width:6.34999;stroke-linecap:round;stroke-linejoin:round;paint-order:markers stroke fill"
       x="12.220967"
       y="6.2755771"
       id="text2"><tspan
         sodipodi:role="line"
         id="tspan1"
         x="12.220967"
         y="6.2755771">atnik</tspan></text>
  </g>
</svg>
