<?xml version="1.0" encoding="UTF-8" standalone="no"?>
<!-- Created with Inkscape (http://www.inkscape.org/) -->

<svg
   width="181.57001"
   height="48"
   viewBox="0 0 48.040393 12.7"
   version="1.1"
   id="svg1"
   inkscape:version="1.3 (0e150ed6c4, 2023-07-21)"
   sodipodi:docname="header.svg"
   xmlns:inkscape="http://www.inkscape.org/namespaces/inkscape"
   xmlns:sodipodi="http://sodipodi.sourceforge.net/DTD/sodipodi-0.dtd"
   xmlns="http://www.w3.org/2000/svg"
   xmlns:svg="http://www.w3.org/2000/svg">
  <sodipodi:namedview
     id="namedview1"
     pagecolor="#ffffff"
     bordercolor="#000000"
     borderopacity="0.25"
     inkscape:showpageshadow="2"
     inkscape:pageopacity="0.0"
     inkscape:pagecheckerboard="0"
     inkscape:deskcolor="#d1d1d1"
     inkscape:document-units="px"
     inkscape:zoom="1.9580948"
     inkscape:cx="171.59537"
     inkscape:cy="9.9586598"
     inkscape:window-width="2560"
     inkscape:window-height="1334"
     inkscape:window-x="-11"
     inkscape:window-y="-11"
     inkscape:window-maximized="1"
     inkscape:current-layer="layer1" />
  <defs
     id="defs1" />
  <g
     inkscape:label="Layer 1"
     inkscape:groupmode="layer"
     id="layer1">
    <g
       id="text1"
       style="font-weight:bold;font-size:16.9333px;font-family:'Yu Gothic';-inkscape-font-specification:'Yu Gothic Bold';text-anchor:middle;stroke-width:2.11667;stroke-linecap:square;paint-order:markers stroke fill"
       aria-label="YAKITORI&#10;SERVER METRO"
       transform="matrix(0.40810996,0,0,0.40810996,-0.01349739,0)">
      <path
         id="path1"
         style="-inkscape-font-specification:'Trebuchet MS'"
         d="m 46.665884,0 c -1.493789,0 -2.681665,0.58980379 -3.563607,1.769401 -0.87643,1.1795972 -1.314648,2.6458384 -1.314648,4.3986977 0,1.8631021 0.42995,3.3899776 1.289843,4.5805993 0.865406,1.190621 2.06155,1.785937 3.588412,1.785937 1.675689,0 2.962784,-0.562243 3.861263,-1.686719 0.898477,-1.1299878 1.347721,-2.689936 1.347721,-4.6798173 0,-1.940272 -0.449244,-3.4533668 -1.347721,-4.5392576 C 49.63418,0.54295021 48.347085,0 46.665884,0 Z M 12.733072,0.04960937 7.8134763,12.327929 H 9.6655596 L 10.558528,9.7730465 h 4.506185 l 0.835091,2.5548825 h 1.835547 L 13.171289,0.04960937 Z m 44.152343,0.04134115 c -0.363801,0 -0.945337,0.02204874 -1.744597,0.06614583 -0.793748,0.038585 -1.220942,0.0578776 -1.281575,0.0578776 V 12.327929 h 1.653646 V 7.044531 c 0.79926,0.055121 1.383551,0.082682 1.752864,0.082682 l 3.232878,5.200716 h 1.893424 L 58.878058,6.755143 c 0.64492,-0.1488277 1.201651,-0.5264124 1.670182,-1.1327474 0.468532,-0.6118471 0.7028,-1.2981141 0.7028,-2.058789 0,-2.3150972 -1.455218,-3.47265608 -4.365625,-3.47265608 z M 0.03307292,0.21497395 3.9356769,6.9039711 V 12.327929 H 5.5893227 V 6.9039711 L 9.4753903,0.21497395 H 7.7721351 L 4.7542316,5.5066404 1.7363281,0.21497395 Z m 18.97558508,0 V 12.327929 h 1.653646 V 9.0454424 l 1.612305,-2.2902994 3.414778,5.572786 h 1.827279 L 23.382551,5.4652993 27.004036,0.21497395 H 25.16022 L 20.662304,6.8047524 V 0.21497395 Z m 10.03763,0 V 12.327929 h 1.653646 V 0.21497395 Z m 3.332096,0 V 1.7032551 h 3.852995 V 12.327929 h 1.653646 V 1.7032551 h 4.026627 V 0.21497395 Z m 31.543293,0 V 12.327929 h 1.653646 V 0.21497395 Z M 46.665884,1.4882812 c 2.315097,0 3.472656,1.5599483 3.472656,4.6798175 0,1.5433982 -0.297658,2.7422985 -0.892969,3.5966796 -0.589799,0.8543807 -1.449699,1.2815757 -2.579687,1.2815757 -0.997697,0 -1.772158,-0.46578 -2.323373,-1.3973309 -0.545701,-0.9315511 -0.818554,-2.091866 -0.818554,-3.4809244 0,-1.4441797 0.267341,-2.585202 0.802018,-3.4230467 0.534677,-0.8378447 1.314652,-1.2567708 2.339909,-1.2567708 z m 9.822656,0.1322917 c 1.047305,0 1.813499,0.1488289 2.298567,0.4464843 0.485068,0.2976554 0.727604,0.7854837 0.727604,1.4634765 0,0.8213083 -0.225999,1.3918195 -0.677994,1.7115234 -0.451995,0.319704 -1.174091,0.4795573 -2.166276,0.4795573 -0.374825,0 -0.760678,-0.027561 -1.157552,-0.082682 v -3.935677 c 0.485068,-0.055121 0.810286,-0.082682 0.975651,-0.082682 z m -43.614908,1.6040364 1.719792,5.3330076 h -3.59668 z M 112.37298,18.584395 c -1.58198,0 -2.84702,0.598072 -3.79512,1.794205 -0.94257,1.190622 -1.41335,2.648594 -1.41335,4.373893 0,1.973345 0.43271,3.527781 1.29812,4.663282 0.87092,1.1355 2.11891,1.703255 3.74499,1.703255 1.76939,0 3.13366,-0.573268 4.09277,-1.719792 0.96463,-1.146525 1.44694,-2.695449 1.44694,-4.646745 0,-1.951296 -0.46027,-3.467147 -1.38079,-4.547525 -0.92053,-1.080379 -2.25172,-1.620573 -3.99356,-1.620573 z m -108.0900374,0.0083 c -1.0748667,0 -1.9568162,0.308682 -2.6458333,0.926042 -0.68350488,0.617359 -1.02526036,1.394577 -1.02526036,2.33164 0,0.501605 0.0854389,0.959117 0.25631509,1.372526 0.17638837,0.41341 0.42443667,0.771702 0.74414057,1.07487 0.3252161,0.297656 0.9508491,0.680752 1.876888,1.149284 0.9315511,0.463019 1.5461597,0.881945 1.843815,1.25677 0.2976554,0.374826 0.4464844,0.768947 0.4464844,1.182357 0,0.881942 -0.6311452,1.322917 -1.8934244,1.322917 -0.8213083,0 -1.6564044,-0.297658 -2.5052734,-0.892969 l -0.79374995,1.926497 c 0.90950245,0.584287 1.92925665,0.876433 3.05924465,0.876433 1.3008642,0 2.337155,-0.316951 3.1088541,-0.950847 0.7772112,-0.633895 1.1658203,-1.44143 1.1658203,-2.422591 0,-0.545701 -0.093707,-1.039042 -0.2811198,-1.480013 C 7.4524309,25.819096 7.1795777,25.430487 6.8212888,25.099759 6.463,24.763519 5.8787084,24.396959 5.0684243,24.000085 3.5305382,23.250435 2.7615884,22.528338 2.7615884,21.833809 c 0,-0.418923 0.1350486,-0.757922 0.4051433,-1.016993 0.2756068,-0.264583 0.6614598,-0.396874 1.157552,-0.396874 0.8378448,0 1.6343554,0.270096 2.3895181,0.810286 L 7.3669919,19.378145 C 6.7110477,18.854492 5.6830252,18.592663 4.2829426,18.592663 Z m 18.5291004,0.08268 c -0.496092,0 -1.149286,0.02205 -1.95957,0.06615 -0.810284,0.03859 -1.276064,0.05788 -1.39733,0.05788 V 30.91236 h 2.232421 v -5.060156 c 0.584287,0.03305 1.039042,0.05234 1.364258,0.05788 l 3.232878,5.002279 h 2.480468 l -3.580143,-5.457031 c 0.64492,-0.242534 1.179602,-0.658704 1.604037,-1.248503 0.424434,-0.589798 0.636653,-1.242992 0.636653,-1.95957 0,-2.381243 -1.537899,-3.571875 -4.613672,-3.571875 z m 29.889648,0 c -0.496092,0 -1.149287,0.02205 -1.95957,0.06615 -0.810284,0.03859 -1.276064,0.05788 -1.397331,0.05788 V 30.91236 h 2.232422 v -5.060156 c 0.584286,0.03305 1.039042,0.05234 1.364257,0.05788 l 3.232878,5.002279 h 2.480469 l -3.580143,-5.457031 c 0.64492,-0.242534 1.179601,-0.658704 1.604036,-1.248503 0.424434,-0.589798 0.636654,-1.242992 0.636654,-1.95957 0,-2.381243 -1.5379,-3.571875 -4.613672,-3.571875 z m 48.054949,0 c -0.4961,0 -1.149291,0.02205 -1.959573,0.06615 -0.810284,0.03859 -1.276064,0.05788 -1.397331,0.05788 V 30.91236 h 2.232422 v -5.060156 c 0.584292,0.03305 1.039042,0.05234 1.364262,0.05788 l 3.23287,5.002279 h 2.47996 l -3.57963,-5.457031 c 0.64492,-0.242534 1.1796,-0.658704 1.60404,-1.248503 0.42443,-0.589798 0.63613,-1.242992 0.63613,-1.95957 0,-2.381243 -1.53738,-3.571875 -4.61315,-3.571875 z M 9.8226559,18.799369 v 12.112955 h 7.6398431 v -1.909961 h -5.490104 v -3.629752 h 4.001823 V 23.545332 H 11.972395 V 20.70933 h 5.581055 v -1.909961 z m 18.1652991,0 4.530989,12.27832 h 1.182357 l 4.729427,-12.27832 h -2.315104 l -2.960026,8.185546 -2.80293,-8.185546 z m 11.724348,0 v 12.112955 h 7.639844 v -1.909961 h -5.490104 v -3.629752 h 4.001823 V 23.545332 H 41.862043 V 20.70933 h 5.581054 v -1.909961 z m 37.694856,0 v 12.112955 h 7.639843 v -1.909961 h -5.490104 v -3.629752 h 4.001823 V 23.545332 H 79.556898 V 20.70933 h 5.581055 v -1.909961 z m 8.557617,0 v 1.909961 h 3.852994 v 10.202994 h 2.14974 V 20.70933 h 4.026627 v -1.909961 z m 26.408204,1.694987 c 2.09461,0 3.14193,1.419387 3.14193,4.258137 0,1.449692 -0.28388,2.554886 -0.85163,3.31556 -0.56224,0.760675 -1.3808,1.141016 -2.45566,1.141016 -0.91502,0 -1.61231,-0.388609 -2.09186,-1.16582 -0.47956,-0.777212 -0.71882,-1.874136 -0.71882,-3.290756 0,-1.300864 0.2558,-2.334398 0.76842,-3.100585 0.51263,-0.7717 1.24851,-1.157552 2.20762,-1.157552 z m -89.957812,0.124023 c 0.959112,0 1.661916,0.118511 2.108399,0.355534 0.446483,0.237022 0.669726,0.653192 0.669726,1.248502 0,0.733114 -0.209463,1.226455 -0.628385,1.480013 -0.41341,0.253559 -1.069361,0.380339 -1.967838,0.380339 -0.209462,0 -0.512632,-0.01654 -0.909506,-0.04961 v -3.36517 c 0.253559,-0.03307 0.496095,-0.04961 0.727604,-0.04961 z m 29.889648,0 c 0.959112,0 1.661915,0.118511 2.108398,0.355534 0.446484,0.237022 0.669727,0.653192 0.669727,1.248502 0,0.733114 -0.209463,1.226455 -0.628386,1.480013 -0.41341,0.253559 -1.06936,0.380339 -1.967838,0.380339 -0.209461,0 -0.512631,-0.01654 -0.909505,-0.04961 v -3.36517 c 0.253558,-0.03307 0.496094,-0.04961 0.727604,-0.04961 z m 48.054944,0 c 0.95911,0 1.66192,0.118511 2.1084,0.355534 0.44649,0.237022 0.66973,0.653192 0.66973,1.248502 0,0.733114 -0.20946,1.226455 -0.62839,1.480013 -0.4134,0.253559 -1.06936,0.380339 -1.96784,0.380339 -0.20946,0 -0.51263,-0.01654 -0.909502,-0.04961 v -3.36517 c 0.253556,-0.03307 0.496092,-0.04961 0.727602,-0.04961 z" />
      <path
         style="fill:#c00000"
         d="m 76.084043,30.920495 h -2.083589 l -1.256769,-6.531889 -2.439123,6.688985 h -0.768943 l -2.439123,-6.688985 -1.306378,6.531889 h -2.075321 l 2.439123,-12.1212 h 1.141013 l 2.621023,8.160726 2.563146,-8.160726 h 1.132746 z"
         id="path3" />
    </g>
  </g>
</svg>
