<?xml version="1.0" encoding="UTF-8" standalone="no"?>
<!-- Created with Inkscape (http://www.inkscape.org/) -->

<svg
   width="1024"
   height="1024"
   viewBox="0 0 270.93333 270.93333"
   version="1.1"
   id="svg1"
   inkscape:version="1.3 (0e150ed6c4, 2023-07-21)"
   sodipodi:docname="ns-line.svg"
   xmlns:inkscape="http://www.inkscape.org/namespaces/inkscape"
   xmlns:sodipodi="http://sodipodi.sourceforge.net/DTD/sodipodi-0.dtd"
   xmlns="http://www.w3.org/2000/svg"
   xmlns:svg="http://www.w3.org/2000/svg">
  <sodipodi:namedview
     id="namedview1"
     pagecolor="#ffffff"
     bordercolor="#000000"
     borderopacity="0.25"
     inkscape:showpageshadow="2"
     inkscape:pageopacity="0.0"
     inkscape:pagecheckerboard="0"
     inkscape:deskcolor="#d1d1d1"
     inkscape:document-units="px"
     inkscape:zoom="0.69229107"
     inkscape:cx="551.79103"
     inkscape:cy="264.33968"
     inkscape:window-width="2560"
     inkscape:window-height="1334"
     inkscape:window-x="-11"
     inkscape:window-y="-11"
     inkscape:window-maximized="1"
     inkscape:current-layer="layer1"
     showguides="false" />
  <defs
     id="defs1" />
  <g
     inkscape:label="Layer 1"
     inkscape:groupmode="layer"
     id="layer1">
    <rect
       style="-inkscape-font-specification:'Segoe UI';fill:#ffffff;stroke-width:4.23333;stroke-linecap:square;paint-order:markers stroke fill"
       id="rect10"
       width="270.93332"
       height="270.93332"
       x="5.4541015e-06"
       y="5.4541015e-06" />
    <path
       id="rect1"
       style="fill:#c00000;stroke-width:3.38775;stroke-linecap:square;paint-order:markers stroke fill"
       d="m 133.34999,135.46666 h 4.23333 v 101.6 h -4.23333 z" />
    <g
       id="g1">
      <path
         id="path1"
         style="fill:#ffffff;stroke:#e00000;stroke-width:6.61206;stroke-linecap:square;paint-order:markers stroke fill"
         d="m 140.62729,135.46666 a 5.160635,5.160635 0 0 1 -5.16063,5.16063 5.160635,5.160635 0 0 1 -5.16064,-5.16063 5.160635,5.160635 0 0 1 5.16064,-5.16064 5.160635,5.160635 0 0 1 5.16063,5.16064 z" />
      <path
         style="-inkscape-font-specification:'Yu Gothic Medium';stroke-width:3.46605;stroke-linecap:square;paint-order:markers stroke fill"
         d="m 152.6077,129.11669 q 0.92745,0.0203 1.53671,0.0948 0.23693,0.027 0.23693,0.16923 0,0.13542 -0.0677,0.27756 -0.11511,0.26401 -0.11511,1.11699 v 1.04251 h 2.68753 l 1.88196,-0.027 q 0.11512,0 0.13542,0.027 0.0203,0.027 0.0203,0.12871 l -0.027,1.71949 v 1.60439 l 0.027,2.70785 q 0,0.10153 -0.027,0.12871 -0.0203,0.027 -0.12183,0.027 H 157.597 q -0.11512,0 -0.13542,-0.0339 -0.0203,-0.0203 -0.0203,-0.12183 v -0.5822 h -3.24265 v 1.70595 l 0.027,2.56569 q 0,0.10824 -0.027,0.1287 -0.027,0.0203 -0.12183,0.0203 h -1.23885 q -0.10824,0 -0.12871,-0.027 -0.0203,-0.027 -0.0203,-0.12183 l 0.027,-2.5386 v -1.73302 h -3.06665 v 0.63635 q 0,0.12183 -0.027,0.14901 -0.027,0.0203 -0.12871,0.0203 h -1.17792 q -0.10823,0 -0.1287,-0.0339 -0.0203,-0.027 -0.0203,-0.13542 l 0.027,-2.71462 v -1.42839 l -0.027,-1.94287 q 0,-0.11512 0.027,-0.13543 0.027,-0.0203 0.12871,-0.0203 l 1.88194,0.027 h 2.51154 v -0.92743 q 0,-1.11023 -0.10841,-1.77365 z m 4.83351,4.04823 h -3.24264 v 2.88386 h 3.24264 z m -7.79183,0 v 2.88386 h 3.06664 v -2.88386 z m 13.26846,3.71652 -1.67211,0.027 q -0.11511,0 -0.13542,-0.0339 -0.0203,-0.027 -0.0203,-0.13542 v -1.04251 q 0,-0.10824 0.027,-0.12871 0.027,-0.0203 0.12854,-0.0203 l 1.53672,0.027 v -2.46414 l -0.027,-1.41485 q 0,-0.11512 0.027,-0.13542 0.027,-0.0203 0.12183,-0.0203 l 1.92935,0.027 h 1.80071 v -0.56866 q 0,-1.10345 -0.0948,-1.8278 0.77174,0.0406 1.48254,0.13542 0.25049,0.0203 0.25049,0.1828 0,0.0948 -0.11511,0.34525 -0.0677,0.20985 -0.0677,1.16437 v 0.56865 h 1.90225 l 1.92258,-0.027 q 0.10824,0 0.13542,0.027 0.0203,0.027 0.0203,0.12854 l -0.027,1.40131 v 2.47769 l 1.5367,-0.027 q 0.14213,0 0.14213,0.14885 v 1.04252 q 0,0.11511 -0.027,0.14213 -0.0203,0.027 -0.11512,0.027 l -1.69239,-0.027 h -3.31035 q 0.85974,1.39454 2.29491,2.25428 1.17114,0.70405 2.90415,1.1576 -0.44001,0.54835 -0.64987,1.06962 -0.15572,0.35877 -0.26402,0.35877 -0.0948,0 -0.31818,-0.0812 -3.73683,-1.381 -5.13137,-4.10915 -1.16436,2.77554 -5.05014,4.14978 -0.22339,0.0812 -0.30462,0.0812 -0.12183,0 -0.27756,-0.34525 -0.28432,-0.59572 -0.66341,-1.01545 3.9196,-0.96806 4.97566,-3.5202 z m 4.99598,-1.30653 h 2.66046 v -2.70109 h -2.48445 q -0.0203,1.63149 -0.17601,2.70109 z m -1.27946,-2.70109 h -2.39645 v 2.70109 h 2.20691 q 0.16924,-0.9816 0.18954,-2.70109 z m 12.97736,3.85193 h -2.38967 l -1.4487,0.027 q -0.11512,0 -0.13542,-0.0339 -0.0203,-0.027 -0.0203,-0.13542 l 0.027,-1.68565 v -3.45249 l -0.027,-1.70595 q 0,-0.10823 0.027,-0.12854 0.027,-0.0203 0.1287,-0.0203 l 1.4487,0.027 h 2.23398 l 1.37422,-0.027 q 0.10841,0 0.12871,0.027 0.0203,0.027 0.0203,0.12183 v 0.88683 q 0,0.10824 -0.027,0.13542 -0.027,0.0203 -0.12183,0.0203 l -1.37422,-0.027 h -0.26402 v 0.95452 l 1.27945,-0.027 q 0.10841,0 0.12871,0.027 0.0203,0.027 0.0203,0.12183 v 0.76496 q 0,0.10823 -0.027,0.12871 -0.027,0.0203 -0.12183,0.0203 -0.007,0 -0.38586,-0.007 -0.3994,-0.0131 -0.89358,-0.0203 v 0.92743 l 1.27944,-0.0131 q 0.1084,0 0.12871,0.0203 0.0203,0.0203 0.0203,0.12184 v 0.77785 q 0,0.10824 -0.027,0.12871 -0.027,0.0203 -0.12183,0.0203 -0.027,0 -0.17601,-0.007 -0.50096,-0.0131 -1.10344,-0.0203 v 0.9816 h 0.25047 l 1.21853,-0.027 q 0.15572,0 0.15572,0.12854 0,0.0339 0,0.0542 l -0.0406,0.9139 q -0.0745,2.70108 -0.36556,3.66235 0.85974,-1.33361 1.11021,-3.3171 0.18278,-1.32685 0.18278,-4.92152 l -0.027,-2.15951 q 0,-0.11511 0.0339,-0.13542 0.027,-0.0203 0.13542,-0.0203 l 1.55024,0.027 h 2.02411 l 1.55026,-0.027 q 0.12183,0 0.14901,0.027 0.0203,0.027 0.0203,0.12871 l -0.027,1.38776 v 2.60632 l 0.027,1.36746 q 0,0.10824 -0.027,0.13542 -0.0339,0.0203 -0.14214,0.0203 h -1.04929 q -0.15573,0 -0.15573,-0.16924 v -0.264 h -0.4874 q 0.29786,3.49313 2.56569,5.54431 -0.35204,0.25725 -0.81237,0.81913 -0.18278,0.26401 -0.26402,0.26401 -0.0812,0 -0.27755,-0.22338 -1.21853,-1.27947 -1.82102,-3.05311 -0.47388,-1.40131 -0.64989,-3.35096 h -0.99513 q -0.0406,1.25915 -0.19632,2.52507 -0.29786,2.20011 -1.32009,3.879 -0.16243,0.25047 -0.23692,0.25047 -0.0676,0 -0.2911,-0.22339 -0.35879,-0.39264 -0.74466,-0.64989 -0.41294,0.76495 -1.34715,0.76495 -0.41295,0 -0.59572,-0.0131 -0.16924,-0.0203 -0.20987,-0.0879 -0.0339,-0.0609 -0.0948,-0.37234 -0.0676,-0.4874 -0.27756,-0.92743 0.62281,0.0812 1.029,0.0812 0.38587,0 0.56865,-0.35879 0.27078,-0.61603 0.30462,-3.21556 z m 6.15358,-5.55786 h -2.70107 v 1.21853 q 0,0.98837 -0.0131,1.41485 h 2.71462 z m -8.90204,4.48826 h 1.13729 v -0.9816 h -1.13729 z m 0,-3.94669 h 1.13729 v -0.95451 h -1.13729 z m 0,1.9361 h 1.13729 v -0.92743 h -1.13729 z m -1.13729,3.63529 0.4197,0.14213 q 0.14885,0.0473 0.17601,0.0879 0.0203,0.0339 0.0203,0.14213 -0.0676,1.88194 -0.4874,3.1208 -0.0473,0.12854 -0.12871,0.12854 -0.0542,0 -0.12183,-0.0473 l -0.48741,-0.31818 q -0.14214,-0.0677 -0.14214,-0.14214 0,-0.0339 0.0339,-0.12183 0.39265,-1.17791 0.50097,-2.89739 0.007,-0.13542 0.0676,-0.13542 0.027,0 0.14884,0.0406 z m 1.33361,0.1084 q 0.0948,-0.0131 0.12183,-0.0131 0.0745,0 0.0881,0.1287 0.18954,1.52994 0.22339,2.45061 0,0.14884 -0.16924,0.20986 l -0.43324,0.15572 q -0.0948,0.0339 -0.12871,0.0339 -0.0609,0 -0.0609,-0.1287 0,-1.32008 -0.15573,-2.55891 -0.007,-0.0542 -0.007,-0.0745 0,-0.0879 0.17601,-0.12854 z m 0.90036,-0.1084 q 0.0745,-0.027 0.10824,-0.027 0.0609,0 0.0879,0.12855 0.18278,0.81912 0.31817,1.97673 0,0.0473 0,0.0609 0,0.10153 -0.16924,0.17602 l -0.29109,0.12183 q -0.0948,0.0473 -0.12871,0.0473 -0.0542,0 -0.0609,-0.12855 -0.0948,-1.21176 -0.29108,-2.06474 -0.0131,-0.0609 -0.0131,-0.0812 0,-0.0542 0.14901,-0.11511 z m 0.81913,-0.14886 q 0.0609,-0.027 0.0948,-0.027 0.0473,0 0.0881,0.10153 0.23693,0.64988 0.37231,1.46224 0.007,0.0473 0.007,0.0677 0,0.0745 -0.11512,0.14213 l -0.29786,0.14902 q -0.0676,0.0406 -0.10824,0.0406 -0.0542,0 -0.0677,-0.10823 -0.16244,-1.02221 -0.34525,-1.57054 -0.0203,-0.0609 -0.0203,-0.0879 0,-0.0473 0.12854,-0.0881 z"
         id="text1"
         aria-label="中央駅" />
    </g>
    <g
       id="g2"
       transform="matrix(1.000005,0,0,1.000005,-6.2592708e-4,101.59937)">
      <path
         id="path1-9"
         style="fill:#ffffff;stroke:#e00000;stroke-width:6.61206;stroke-linecap:square;paint-order:markers stroke fill"
         d="m 140.62729,135.46666 a 5.160635,5.160635 0 0 1 -5.16063,5.16063 5.160635,5.160635 0 0 1 -5.16064,-5.16063 5.160635,5.160635 0 0 1 5.16064,-5.16064 5.160635,5.160635 0 0 1 5.16063,5.16064 z" />
      <path
         style="-inkscape-font-specification:'Yu Gothic Bold';stroke-width:6.81232;stroke-linecap:square;paint-order:markers stroke fill"
         d="m 154.6795,138.6832 q -0.0798,0.43908 -0.0931,0.88481 -0.0266,0.34593 -0.0865,0.41911 -0.0532,0.0532 -0.35259,0.15302 -2.18208,0.69188 -4.78328,1.2374 -0.30602,0.0532 -0.44573,0.1397 -0.16632,0.10644 -0.27276,0.10644 -0.15966,0 -0.20623,-0.21953 -0.10644,-0.40582 -0.27276,-1.33054 0.56548,-0.02 1.41702,-0.16632 v -7.35122 l -0.0266,-2.40161 q 0,-0.1131 0.0266,-0.13306 0.0266,-0.02 0.1264,-0.02 l 2.03572,0.0266 h 4.90968 l 2.14882,-0.0266 q 0.13971,0 0.13971,0.15302 l -0.0266,1.17752 v 1.26401 l 0.0266,1.19083 q 0,0.15301 -0.13971,0.15301 l -2.14882,-0.0266 h -1.22409 q 0.0931,1.03782 0.19958,1.57004 l 2.06233,-0.0599 q 0.77171,-0.02 1.42368,-0.0599 0.43242,-0.02 0.46569,-0.02 0.11974,0 0.1397,0.0266 0.0133,0.02 0.0133,0.1264 l 0.0266,1.04447 q 0,0.10645 -0.0266,0.13306 -0.02,0.02 -0.1264,0.02 -0.63866,0 -1.88937,0.0266 l -1.78957,0.0532 q 0.21289,0.75175 0.51891,1.3638 0.42577,0.91142 0.9979,1.42367 0.45239,0.41247 0.81828,0.41247 0.52557,0 0.63866,-1.78292 0.31268,0.29272 0.84489,0.57213 0.25281,0.11975 0.30603,0.16632 0.0665,0.0665 0.0665,0.17297 0,0.0665 -0.0333,0.27276 -0.3659,2.20869 -1.7297,2.20869 -0.83158,0 -1.66982,-0.69853 -0.81163,-0.67192 -1.41037,-1.83614 -0.51226,-1.03782 -0.81828,-2.23531 l -3.41948,0.0865 v 2.72095 q 1.8561,-0.39916 3.63902,-0.93803 z m 2.82074,-6.00738 v -1.41037 h -6.45976 v 1.41037 z m -3.53258,1.2374 h -2.92718 v 1.68978 l 3.13341,-0.0798 q -0.1264,-0.76506 -0.20623,-1.60995 z m 11.12994,-1.39041 h -0.93803 q -0.0399,1.4769 -0.0399,1.53012 h 1.3771 l 0.81163,-0.0266 q 0.16632,0 0.16632,0.16632 -0.0133,0.19292 -0.0399,1.47024 -0.02,3.63902 -0.3792,4.78993 -0.32598,1.06443 -1.41702,1.06443 -0.38586,0 -0.57213,-0.0133 -0.17297,-0.0133 -0.21954,-0.0798 -0.0399,-0.0599 -0.0665,-0.29937 -0.0865,-0.59874 -0.31268,-1.03782 0.4923,0.0931 0.89812,0.0931 0.29271,0 0.40581,-0.17962 0.0865,-0.13971 0.17962,-0.59874 0.16632,-0.83824 0.20624,-4.11136 h -1.09104 q -0.13971,2.1222 -0.50561,3.54588 -0.35924,1.37711 -1.01121,2.46149 -0.14636,0.23285 -0.22619,0.23285 -0.0798,0 -0.24615,-0.23285 -0.38585,-0.58543 -0.76506,-0.85819 1.01787,-1.42368 1.33054,-3.61906 0.19958,-1.39707 0.21954,-4.29764 -0.46569,0.007 -0.85154,0.02 -0.24615,0.007 -0.25946,0.007 -0.11309,0 -0.13305,-0.0266 -0.02,-0.0266 -0.02,-0.11975 v -0.97794 q 0,-0.11975 0.0266,-0.14636 0.0266,-0.02 0.1264,-0.02 l 1.47024,0.0266 h 0.47235 v -0.65196 q 0,-0.89146 -0.0931,-1.32389 0.91142,0.0266 1.44363,0.0865 0.21954,0 0.21954,0.13305 0,0.0532 -0.0798,0.27276 -0.0865,0.21954 -0.0865,0.83159 v 0.65196 l 1.4769,-0.0266 q 0.10644,0 0.1264,0.0333 0.02,0.0266 0.02,0.13306 v 0.88481 q 0.77836,-0.92473 1.22409,-2.2087 0.16632,-0.49229 0.20623,-0.8715 0.76506,0.1131 1.2241,0.25946 0.23284,0.0599 0.23284,0.17297 0,0.0865 -0.10644,0.19292 -0.0865,0.0998 -0.23284,0.479 -0.16632,0.41912 -0.25946,0.61204 h 3.19994 l 1.62326,-0.0266 q 0.10644,0 0.13305,0.0266 0.02,0.0266 0.02,0.11975 v 0.99791 q 0,0.10644 -0.0333,0.1264 -0.02,0.02 -0.11975,0.02 l -1.62326,-0.0266 h -3.8519 q -0.51226,0.83159 -1.06443,1.45694 -0.21289,0.23285 -0.27276,0.23285 -0.0532,0 -0.31268,-0.25946 -0.29272,-0.29272 -0.76506,-0.5056 0.29272,-0.27276 0.55883,-0.55883 z m 1.11765,7.96992 q 1.53677,-0.57879 2.29518,-1.32389 0.67192,-0.65861 0.95133,-1.6299 h -0.64531 l -1.743,0.0266 q -0.14636,0 -0.14636,-0.13971 v -0.95133 q 0,-0.1131 0.0266,-0.13306 0.0266,-0.02 0.11975,-0.02 l 1.743,0.0333 h 0.84489 q 0.0599,-0.65197 0.0599,-1.2241 0,-0.14636 0,-0.29271 h -0.84489 q -0.33264,0.5056 -0.72515,0.95133 -0.22619,0.24615 -0.29937,0.24615 -0.0665,0 -0.31267,-0.24615 -0.25946,-0.25945 -0.66527,-0.48565 0.93803,-0.8715 1.55007,-2.06898 0.21289,-0.48565 0.28607,-0.83159 0.67857,0.11975 1.11765,0.28607 0.17962,0.0665 0.17962,0.17297 0,0.0798 -0.10644,0.19293 -0.10644,0.0865 -0.27941,0.44573 l -0.0798,0.15301 h 1.80953 l 1.89601,-0.0266 q 0.11975,0 0.13971,0.0266 0.0266,0.0266 0.0266,0.11975 v 0.95798 q 0,0.0931 -0.0333,0.1131 -0.0266,0.02 -0.13306,0.02 l -1.89601,-0.0266 h -0.27276 q 0,0.73844 -0.0665,1.51681 h 0.93803 l 1.76296,-0.0333 q 0.13305,0 0.13305,0.15302 v 0.95133 q 0,0.13971 -0.13305,0.13971 l -1.76296,-0.0266 h -0.75841 q 0.47234,0.97794 1.29062,1.71639 0.77171,0.69188 1.7164,1.03117 -0.40582,0.48564 -0.62536,0.97129 -0.15301,0.35259 -0.27276,0.35259 -0.0798,0 -0.28606,-0.11975 -1.62326,-1.05112 -2.57459,-2.82074 -0.81163,1.80288 -3.0935,2.86066 -0.2395,0.10644 -0.31268,0.10644 -0.1264,0 -0.25945,-0.33929 -0.19958,-0.5056 -0.55883,-0.80497 z m 11.10999,-7.71046 -1.7164,0.0266 q -0.10644,0 -0.13305,-0.0333 -0.02,-0.0266 -0.02,-0.13305 v -1.09104 q 0,-0.1131 0.0333,-0.13971 0.0199,-0.02 0.11974,-0.02 l 1.7164,0.0266 h 1.82283 l 0.0333,-0.28607 q 0.0532,-0.63201 0.0532,-1.13096 0,-0.41246 -0.0399,-0.65196 0.67858,0.0133 1.51016,0.13305 0.25946,0.0399 0.25946,0.17963 0,0.15301 -0.13971,0.32598 -0.0798,0.13305 -0.17297,1.15757 -0.0266,0.19292 -0.0266,0.27276 h 4.94294 l 1.7164,-0.0266 q 0.11975,0 0.1397,0.0333 0.0266,0.0266 0.0266,0.1264 v 1.09104 q 0,0.11975 -0.0333,0.14636 -0.0266,0.02 -0.13305,0.02 l -1.7164,-0.0266 h -5.10926 q -0.10644,0.79832 -0.24615,1.48354 h 4.0781 q 0.17962,0 0.33929,-0.0532 0.13305,-0.0532 0.17297,-0.0532 0.15966,0 0.6187,0.39251 0.43242,0.3792 0.43242,0.53222 0,0.1397 -0.10644,0.23284 -0.17297,0.13305 -0.32598,0.49895 -0.75841,1.70974 -1.82949,2.92718 1.63656,1.02452 4.1047,1.53012 -0.36589,0.41912 -0.59208,1.05112 -0.12641,0.35925 -0.26611,0.35925 -0.0732,0 -0.30603,-0.0599 -2.39496,-0.73844 -3.99161,-1.8694 -1.47689,1.22409 -3.61906,1.93593 -0.24615,0.0798 -0.33263,0.0798 -0.13971,0 -0.26611,-0.32598 -0.20623,-0.47234 -0.632,-0.8715 2.2486,-0.58544 3.75211,-1.743 -1.14426,-1.12431 -1.77627,-2.53468 -0.0133,0.0399 -0.0532,0.17297 -0.0333,0.0865 -0.0532,0.13971 -1.07108,2.74091 -3.12011,4.60366 -0.24615,0.20623 -0.31268,0.20623 -0.0865,0 -0.27276,-0.23284 -0.36589,-0.45904 -0.80497,-0.73845 2.00911,-1.51016 3.0935,-4.19119 0.59209,-1.45029 0.85819,-3.4727 z m 6.60611,2.73425 h -3.14672 q 0.52557,1.33719 1.67648,2.38166 0.93803,-1.03117 1.47024,-2.38166 z m 6.90549,-6.12712 q 0.80498,0.0466 1.37711,0.19292 0.21954,0.0665 0.21954,0.16632 0,0.0998 -0.11975,0.28607 -0.13305,0.18627 -0.20623,0.63865 -0.02,0.0931 -0.14636,0.83824 -0.0732,0.42577 -0.1264,0.69854 h 0.67857 l 1.53012,-0.0266 q 0.16631,0 0.16631,0.12641 0,0.0199 0,0.0532 -0.0599,0.56548 -0.0865,1.00455 -0.20623,2.53468 -1.06443,4.39077 0.72514,0.51226 1.3638,1.09105 0.0665,0.0466 0.0665,0.0931 0,0.0532 -0.0798,0.17963 l -0.54552,0.8848 q -0.0732,0.10645 -0.13305,0.10645 -0.0466,0 -0.11309,-0.0665 -0.54553,-0.56548 -1.21079,-1.10435 -0.95134,1.40372 -2.40162,2.36836 -0.2395,0.16632 -0.32598,0.16632 -0.0865,0 -0.28607,-0.29938 -0.27941,-0.43907 -0.63866,-0.73844 1.63656,-0.95134 2.54798,-2.30183 -0.45903,-0.31268 -1.02451,-0.63866 l -0.17297,0.40581 q -0.0732,0.15967 -0.14636,0.15967 -0.0466,0 -0.17962,-0.0599 l -0.69854,-0.31267 q -0.21953,-0.0998 -0.21953,-0.15301 0,-0.0399 0.0798,-0.20624 0.71849,-1.71639 1.25735,-3.90512 -0.47899,0.007 -0.8715,0.02 -0.25945,0.007 -0.27276,0.007 -0.13305,0 -0.13305,-0.15301 v -0.96464 q 0,-0.15302 0.13305,-0.15302 l 1.40372,0.0266 q 0.17297,-0.78502 0.28607,-1.53678 0.0931,-0.59874 0.0931,-1.28396 z m 1.94924,4.03818 h -1.22409 q -0.34594,1.53011 -0.81828,2.86065 0.62535,0.33929 1.19748,0.70519 0.68523,-1.51682 0.84489,-3.56584 z m 3.36626,2.80743 -1.75631,0.0266 q -0.11975,0 -0.14636,-0.0266 -0.02,-0.02 -0.02,-0.10644 v -1.07774 q 0,-0.11309 0.0333,-0.13305 0.0266,-0.02 0.13305,-0.02 l 1.75631,0.0266 h 0.91142 q 0,-1.05112 -0.10645,-1.76961 l 0.49895,0.0266 q 0.93803,-0.93138 1.51682,-1.75631 h -2.48145 l -1.66318,0.0266 q -0.10644,0 -0.1264,-0.0333 -0.02,-0.0266 -0.02,-0.13306 v -1.03782 q 0,-0.11309 0.0266,-0.1397 0.0266,-0.02 0.11974,-0.02 l 1.66318,0.0266 h 3.08019 q 0.17962,0 0.24615,-0.0399 0.10644,-0.0532 0.17297,-0.0532 0.20623,0 0.57213,0.35259 0.43908,0.41912 0.43908,0.6054 0,0.15301 -0.13306,0.22619 -0.18627,0.1264 -0.5056,0.57878 -0.91142,1.17753 -1.8561,2.1089 -0.0266,0.15967 -0.0266,0.78502 v 0.24615 h 0.97794 l 1.77627,-0.0266 q 0.10644,0 0.1264,0.0266 0.02,0.0266 0.02,0.1264 v 1.07774 q 0,0.13305 -0.14636,0.13305 l -1.77627,-0.0266 h -0.97794 v 1.48355 l 0.0266,2.04237 q 0,1.03117 -0.47899,1.43033 -0.25946,0.21954 -0.72515,0.29272 -0.42577,0.0599 -1.33053,0.0599 -0.12641,0.007 -0.16632,0.007 -0.19293,0 -0.24615,-0.0865 -0.0399,-0.0599 -0.0931,-0.32598 -0.17297,-0.67192 -0.44573,-1.03117 0.79167,0.0798 1.49686,0.0798 0.54552,0 0.54552,-0.62535 v -3.32634 z m 16.55853,-4.92299 h -2.40827 l -1.54342,0.0266 q -0.10645,0 -0.13306,-0.0266 -0.02,-0.0266 -0.02,-0.11975 v -1.06443 q 0,-0.11309 0.0333,-0.13305 0.02,-0.02 0.11975,-0.02 l 1.54342,0.0266 h 2.14882 l 1.55007,-0.0266 q 0.11975,0 0.14636,0.0266 0.02,0.0266 0.02,0.1264 l -0.0266,1.45694 v 3.04693 l 0.0266,1.45029 q 0,0.11309 -0.0266,0.1397 -0.02,0.02 -0.13971,0.02 h -1.14426 q -0.10644,0 -0.1264,-0.0266 -0.02,-0.0266 -0.02,-0.13305 v -0.51891 h -2.56128 v 3.79868 q 0,0.50561 0.16631,0.61205 0.21289,0.17962 1.25071,0.17962 1.31723,0 1.62325,-0.33929 0.25946,-0.32598 0.29938,-1.72969 0.37255,0.23284 0.97794,0.3792 0.28607,0.0665 0.35259,0.1264 0.0665,0.0665 0.0665,0.2395 0,0.0665 -0.007,0.17962 -0.0998,1.45694 -0.62536,1.96254 -0.30602,0.30603 -0.97794,0.41912 -0.63866,0.1131 -1.8561,0.1131 -1.8561,0 -2.28187,-0.3526 -0.39251,-0.30602 -0.39251,-1.33719 v -3.89847 l -0.0266,-1.51016 q 0,-0.11309 0.0266,-0.13305 0.0266,-0.02 0.1264,-0.02 l 1.43033,0.0266 h 2.40827 z m -4.98951,10.09878 q 0,0.10644 -0.0266,0.1264 -0.0266,0.02 -0.1264,0.02 h -1.07774 q -0.10644,0 -0.1264,-0.0266 -0.02,-0.0266 -0.02,-0.11975 v -0.43908 h -1.67648 v 0.69188 q 0,0.1131 -0.0266,0.13305 -0.0266,0.02 -0.11974,0.02 h -1.06443 q -0.11975,0 -0.14636,-0.0266 -0.02,-0.0266 -0.02,-0.1264 l 0.0266,-2.05568 v -0.89811 l -0.0266,-1.27732 q 0,-0.11309 0.0333,-0.13305 0.0266,-0.02 0.13306,-0.02 l 1.2374,0.0266 h 1.62325 l 1.25071,-0.0266 q 0.11309,0 0.13305,0.0266 0.02,0.0266 0.02,0.1264 l -0.0266,1.04447 v 0.9713 z m -1.37711,-2.94714 h -1.67648 v 1.35049 h 1.67648 z m -2.12221,-6.78574 h 2.36836 l 1.45694,-0.0266 q 0.13971,0 0.13971,0.14636 v 0.97129 q 0,0.1131 -0.0266,0.13971 -0.0266,0.02 -0.11309,0.02 l -1.45694,-0.0266 h -2.36836 l -1.46359,0.0266 q -0.0931,0 -0.11309,-0.0266 -0.02,-0.0333 -0.02,-0.13305 v -0.97129 q 0,-0.14636 0.13305,-0.14636 z m 0.48565,-1.83614 h 1.60995 l 1.22409,-0.0266 q 0.11975,0 0.14636,0.0266 0.02,0.0266 0.02,0.11975 v 0.91807 q 0,0.10644 -0.0333,0.1264 -0.0266,0.02 -0.13306,0.02 l -1.22409,-0.0266 h -1.60995 l -1.2374,0.0266 q -0.10644,0 -0.13305,-0.0266 -0.02,-0.0266 -0.02,-0.11975 v -0.91807 q 0,-0.10645 0.0333,-0.1264 0.02,-0.02 0.11975,-0.02 z m 0.0732,5.60821 h 1.48355 l 1.14426,-0.0266 q 0.11975,0 0.13971,0.0266 0.02,0.0266 0.02,0.11975 v 0.89146 q 0,0.0931 -0.0266,0.1131 -0.0266,0.0199 -0.13305,0.0199 l -1.14426,-0.0266 h -1.48355 l -1.15757,0.0266 q -0.15301,0 -0.15301,-0.13305 v -0.89146 q 0,-0.10644 0.0266,-0.1264 0.0266,-0.02 0.1264,-0.02 z m 0,-1.82283 h 1.48355 l 1.14426,-0.0266 q 0.11975,0 0.13971,0.0266 0.02,0.0266 0.02,0.11975 v 0.87815 q 0,0.10644 -0.0266,0.1264 -0.0266,0.02 -0.13305,0.02 l -1.14426,-0.0266 h -1.48355 l -1.15757,0.0266 q -0.11309,0 -0.13305,-0.0266 -0.02,-0.0266 -0.02,-0.11975 v -0.87815 q 0,-0.10645 0.0266,-0.12641 0.0266,-0.0199 0.1264,-0.0199 z m 18.24166,-0.17963 h -1.59664 l -1.35715,0.0266 q -0.1131,0 -0.13305,-0.0266 -0.02,-0.0266 -0.02,-0.11974 v -0.71184 q -1.32389,0.88481 -2.87396,1.50351 -0.25946,0.0931 -0.31268,0.0931 -0.11309,0 -0.24615,-0.35259 -0.22619,-0.49895 -0.57213,-0.88481 3.25316,-1.10434 5.17579,-3.14006 0.30602,-0.27942 0.54552,-0.71849 1.07108,0.1397 1.48355,0.23284 0.20623,0.0532 0.20623,0.17297 0,0.1131 -0.13305,0.16632 l -0.1131,0.0532 q 2.23531,2.13551 5.64148,3.02697 -0.30602,0.37255 -0.53221,1.00456 -0.13306,0.36589 -0.24615,0.36589 -0.0466,0 -0.31268,-0.0931 -1.66317,-0.61205 -3.0935,-1.55008 v 0.83159 q 0,0.10644 -0.0266,0.1264 -0.0266,0.02 -0.11975,0.02 z m -2.64111,-1.17087 q 0.19958,0.0133 1.04447,0.0133 h 1.59664 q 1.01121,0 1.18418,-0.0133 -1.00456,-0.69188 -1.94924,-1.67647 -0.83823,0.91807 -1.87605,1.67647 z m 4.52382,1.94924 q 0.20624,0 0.33929,-0.0532 0.15966,-0.0665 0.23284,-0.0665 0.15967,0 0.55883,0.39251 0.3792,0.3659 0.3792,0.51891 0,0.16632 -0.19293,0.27276 -0.23284,0.13305 -0.49895,0.4923 -0.71183,0.93803 -1.39041,1.71639 -0.1264,0.11975 -0.19293,0.11975 -0.11309,0 -0.51891,-0.27276 -0.53221,-0.38586 -0.53221,-0.4923 0,-0.0532 0.0665,-0.11975 0.7451,-0.79832 1.13761,-1.32388 h -4.17124 l -1.8561,0.0266 q -0.10644,0 -0.1264,-0.0333 -0.02,-0.0266 -0.02,-0.1264 v -0.93137 q 0,-0.10645 0.0266,-0.1264 0.0266,-0.02 0.11975,-0.02 l 1.8561,0.0266 z m -0.54552,4.71675 q 0.48565,0.19958 1.05113,0.29937 0.21954,0.0466 0.2661,0.0798 0.0599,0.0399 0.0599,0.13305 0,0.0532 -0.0266,0.21954 -0.19958,1.21079 -0.83159,1.57003 -0.61205,0.33929 -2.64111,0.33929 -1.73636,0 -2.23531,-0.28607 -0.5056,-0.28606 -0.5056,-1.18417 v -1.62326 q 0,-0.65196 -0.0665,-1.13096 0.70519,0 1.39041,0.0665 0.24615,0.0399 0.24615,0.15301 0,0.0798 -0.0665,0.21954 -0.0865,0.15967 -0.0865,0.61205 v 1.2374 q 0,0.43242 0.21954,0.54552 0.27276,0.1397 1.22409,0.1397 0.82494,0 1.12431,-0.0466 0.30602,-0.0466 0.51225,-0.18628 0.34594,-0.21289 0.3659,-1.15757 z m -6.89883,-1.28397 q 0.0333,-0.11309 0.0865,-0.11309 0.0333,0 0.15967,0.0466 l 0.98459,0.33928 q 0.15302,0.0532 0.15302,0.12641 0,0.0333 -0.02,0.10644 -0.52556,1.70309 -1.27732,2.79413 -0.0931,0.1264 -0.16631,0.1264 -0.0599,0 -0.15967,-0.0599 l -0.93138,-0.51891 q -0.13305,-0.0798 -0.13305,-0.15301 0,-0.0466 0.0532,-0.11975 0.85155,-1.07773 1.25071,-2.57459 z m 9.28049,-0.0931 q 0.93803,1.18417 1.57669,2.50806 0.0399,0.0732 0.0399,0.11309 0,0.0599 -0.15967,0.15967 l -0.92472,0.52556 q -0.13306,0.0732 -0.16632,0.0732 -0.0532,0 -0.0931,-0.13971 -0.6187,-1.47689 -1.49685,-2.6145 -0.0599,-0.0665 -0.0599,-0.1131 0,-0.0599 0.1397,-0.13305 l 0.8582,-0.41912 q 0.11309,-0.0532 0.15301,-0.0532 0.0599,0 0.13305,0.0931 z m -4.51052,-0.84489 q 0.83159,0.6187 1.62326,1.47024 0.0665,0.0931 0.0665,0.1264 0,0.0599 -0.10645,0.14636 l -0.69853,0.59874 q -0.1131,0.0998 -0.14636,0.0998 -0.0532,0 -0.13971,-0.10644 -0.70518,-0.8715 -1.51015,-1.53012 -0.0798,-0.0599 -0.0798,-0.1264 0,-0.0599 0.0931,-0.13305 l 0.62535,-0.53222 q 0.0865,-0.0798 0.13971,-0.0798 0.0466,0 0.13305,0.0665 z m 12.04137,0.0532 h -2.3484 l -1.42368,0.0266 q -0.11309,0 -0.13305,-0.0333 -0.02,-0.0266 -0.02,-0.13305 l 0.0266,-1.65652 v -3.39287 l -0.0266,-1.67647 q 0,-0.10645 0.0266,-0.12641 0.0266,-0.0199 0.1264,-0.0199 l 1.42368,0.0266 h 2.19538 l 1.3505,-0.0266 q 0.10644,0 0.1264,0.0266 0.02,0.0266 0.02,0.11975 v 0.8715 q 0,0.10644 -0.0266,0.13305 -0.0266,0.02 -0.11975,0.02 l -1.3505,-0.0266 h -0.25945 v 0.93803 l 1.25736,-0.0266 q 0.10644,0 0.1264,0.0266 0.02,0.0266 0.02,0.11975 v 0.75175 q 0,0.10644 -0.0266,0.1264 -0.0266,0.02 -0.11975,0.02 -0.007,0 -0.37921,-0.007 -0.3925,-0.0133 -0.87815,-0.02 v 0.91142 l 1.25736,-0.0133 q 0.10644,0 0.1264,0.02 0.02,0.02 0.02,0.11975 v 0.76506 q 0,0.10644 -0.0266,0.1264 -0.0266,0.0199 -0.11975,0.0199 -0.0266,0 -0.17297,-0.007 -0.4923,-0.0133 -1.08439,-0.02 v 0.96464 h 0.24615 l 1.19748,-0.0266 q 0.15301,0 0.15301,0.1264 0,0.0333 0,0.0532 l -0.0399,0.89812 q -0.0732,2.65442 -0.35925,3.5991 0.84489,-1.31058 1.09104,-3.25982 0.17963,-1.30392 0.17963,-4.8365 l -0.0266,-2.1222 q 0,-0.1131 0.0333,-0.13306 0.0266,-0.02 0.13305,-0.02 l 1.52347,0.0266 h 1.98915 l 1.52347,-0.0266 q 0.11974,0 0.14635,0.0266 0.02,0.0266 0.02,0.12641 l -0.0266,1.3638 v 2.56128 l 0.0266,1.34384 q 0,0.10645 -0.0266,0.13306 -0.0333,0.0199 -0.1397,0.0199 h -1.03117 q -0.15301,0 -0.15301,-0.16631 v -0.25946 h -0.479 q 0.29272,3.43279 2.52137,5.44855 -0.34594,0.2528 -0.79832,0.80498 -0.17962,0.25945 -0.25946,0.25945 -0.0798,0 -0.27276,-0.21954 -1.19748,-1.25736 -1.78957,-3.00036 -0.46569,-1.3771 -0.63866,-3.29308 h -0.97794 q -0.0399,1.2374 -0.19293,2.48145 -0.29272,2.16213 -1.29727,3.81199 -0.15967,0.24615 -0.23285,0.24615 -0.0665,0 -0.28606,-0.21954 -0.35259,-0.38585 -0.7318,-0.63865 -0.40581,0.75175 -1.32388,0.75175 -0.40581,0 -0.58544,-0.0133 -0.16631,-0.02 -0.20623,-0.0865 -0.0333,-0.0599 -0.0931,-0.3659 -0.0665,-0.47899 -0.27276,-0.91142 0.61205,0.0798 1.01121,0.0798 0.3792,0 0.55883,-0.3526 0.2661,-0.60539 0.29937,-3.16002 z m 6.04729,-5.46186 h -2.65442 v 1.19749 q 0,0.97129 -0.0133,1.39041 h 2.66773 z m -8.74828,4.41073 h 1.11765 v -0.96464 h -1.11765 z m 0,-3.87851 h 1.11765 v -0.93803 h -1.11765 z m 0,1.90267 h 1.11765 v -0.91142 h -1.11765 z m -1.11766,3.57249 0.41247,0.1397 q 0.14636,0.0466 0.17297,0.0865 0.02,0.0333 0.02,0.13971 -0.0665,1.84944 -0.47899,3.06688 -0.0466,0.1264 -0.12641,0.1264 -0.0532,0 -0.11974,-0.0466 l -0.479,-0.31268 q -0.1397,-0.0665 -0.1397,-0.13971 0,-0.0333 0.0333,-0.11975 0.38586,-1.15756 0.4923,-2.84735 0.007,-0.13305 0.0665,-0.13305 0.0266,0 0.14635,0.0399 z m 1.31058,0.10644 q 0.0931,-0.0133 0.11975,-0.0133 0.0732,0 0.0865,0.12641 0.18627,1.5035 0.21954,2.40827 0,0.14636 -0.16632,0.20623 l -0.42577,0.15301 q -0.0931,0.0333 -0.1264,0.0333 -0.0599,0 -0.0599,-0.1264 0,-1.29728 -0.15301,-2.51472 -0.007,-0.0532 -0.007,-0.0732 0,-0.0865 0.17297,-0.1264 z m 0.88481,-0.10644 q 0.0732,-0.0266 0.10644,-0.0266 0.0599,0 0.0865,0.1264 0.17962,0.80497 0.31268,1.94258 0,0.0466 0,0.0599 0,0.0998 -0.16632,0.17297 l -0.28607,0.11974 q -0.0931,0.0466 -0.1264,0.0466 -0.0532,0 -0.0599,-0.1264 -0.0931,-1.19083 -0.28607,-2.02907 -0.0133,-0.0599 -0.0133,-0.0798 0,-0.0532 0.14636,-0.1131 z m 0.80498,-0.14636 q 0.0599,-0.0266 0.0931,-0.0266 0.0466,0 0.0865,0.0998 0.23284,0.63866 0.3659,1.43698 0.007,0.0466 0.007,0.0665 0,0.0732 -0.1131,0.13971 l -0.29271,0.14636 q -0.0665,0.0399 -0.10645,0.0399 -0.0532,0 -0.0665,-0.10645 -0.15967,-1.00455 -0.33929,-1.54342 -0.02,-0.0599 -0.02,-0.0865 0,-0.0466 0.1264,-0.0865 z"
         id="text2"
         aria-label="民族友好記念駅" />
    </g>
    <g
       id="text4"
       style="font-size:16.9333px;font-family:'Segoe UI';-inkscape-font-specification:'Segoe UI';text-anchor:middle;fill:#808080;stroke-width:4.23333;stroke-linecap:square;paint-order:markers stroke fill"
       aria-label="N-S&#10;LINE">
      <path
         style="-inkscape-font-specification:'Trebuchet MS';fill:#c00000"
         d="M 16.412419,20.744964 10.53372,13.08033 v 7.507538 H 8.4666666 V 8.4666675 H 9.5001933 L 15.221797,15.775768 V 8.4666675 H 17.28885 V 20.744964 Z M 19.430317,16.64393 V 14.7009 h 4.373884 v 1.94303 z m 5.977919,3.265944 0.793748,-1.926493 q 1.273305,0.892967 2.505268,0.892967 1.893421,0 1.893421,-1.322915 0,-0.620116 -0.446483,-1.182354 -0.446484,-0.562238 -1.843812,-1.256768 -1.38906,-0.702798 -1.876884,-1.149282 -0.479556,-0.454752 -0.744139,-1.074868 -0.256315,-0.620116 -0.256315,-1.372523 0,-1.405596 1.025259,-2.331636 1.033526,-0.9260398 2.645828,-0.9260398 2.100126,0 3.084043,0.7854802 l -0.653189,1.8520796 q -1.132745,-0.810285 -2.389513,-0.810285 -0.744139,0 -1.15755,0.396874 -0.405142,0.388606 -0.405142,1.016991 0,1.041794 2.306831,2.166271 1.215427,0.595312 1.752861,1.099673 0.537434,0.496092 0.818553,1.165818 0.281119,0.661457 0.281119,1.48001 0,1.471742 -1.165818,2.422586 -1.157549,0.950845 -3.108848,0.950845 -1.694983,0 -3.059238,-0.876431 z"
         id="path9" />
      <path
         style="-inkscape-font-specification:'Trebuchet MS'"
         d="M 8.4666666,37.62515 V 25.512218 h 1.6536424 v 10.624654 h 5.473557 v 1.488278 z m 8.8635244,0 V 25.512218 h 1.653642 V 37.62515 Z m 12.253491,0.165364 -6.259037,-8.855256 V 37.62515 H 21.753684 V 25.512218 h 0.661457 l 6.093673,8.3757 v -8.3757 h 1.570961 v 12.278296 z m 4.6302,-10.790017 v 3.365162 h 4.001815 v 1.405596 h -4.001815 v 4.365617 h 5.490093 V 37.62515 H 32.560239 V 25.512218 h 7.234687 v 1.488279 z"
         id="path10" />
    </g>
  </g>
</svg>
